<svg width="26" height="26" viewBox="0 0 26 26" fill="none" xmlns="http://www.w3.org/2000/svg">
<g opacity="0.5">
<path d="M26 13C26 5.82015 20.1799 0 13 0C5.82015 0 0 5.82015 0 13C0 19.4884 4.75319 24.8676 10.9681 25.8421V16.7575H7.66711V13H10.9681V10.1361C10.9681 6.87748 12.9095 5.07867 15.8793 5.07867C17.3025 5.07867 18.7893 5.33289 18.7893 5.33289V8.53185H17.1504C15.5345 8.53185 15.0319 9.53333 15.0319 10.5618V13H18.6372L18.0613 16.7575H15.0319V25.8421C21.2468 24.8676 26 19.4884 26 13Z" fill="white"/>
<path d="M18.0594 16.7574L18.6353 12.9999H15.0319V10.5617C15.0319 9.53328 15.5345 8.5318 17.1504 8.5318H18.7893V5.33284C18.7893 5.33284 17.3025 5.07861 15.8793 5.07861C12.9095 5.07861 10.9681 6.87743 10.9681 10.1361V12.9999H7.66711V16.7574H10.9681V25.842C11.6307 25.946 12.3086 25.9999 13 25.9999C13.6914 25.9999 14.3693 25.946 15.0319 25.842V16.7574H18.0594Z" fill="black"/>
</g>
</svg>
