<svg width="26" height="26" viewBox="0 0 26 26" fill="none" xmlns="http://www.w3.org/2000/svg">
<g opacity="0.5">
<path d="M13 26C20.1797 26 26 20.1797 26 13C26 5.8203 20.1797 0 13 0C5.8203 0 0 5.8203 0 13C0 20.1797 5.8203 26 13 26Z" fill="white"/>
<path d="M13.0001 6.28996C15.186 6.28996 15.4441 6.29766 16.3069 6.3381C17.1042 6.3747 17.5375 6.50759 17.8264 6.61929C18.2078 6.76759 18.4812 6.94477 18.7682 7.23173C19.0552 7.5187 19.2324 7.79025 19.3807 8.17351C19.4924 8.4624 19.6252 8.89573 19.6618 9.69307C19.7004 10.5559 19.71 10.8159 19.71 12.9999C19.71 15.1839 19.7023 15.4439 19.6618 16.3067C19.6252 17.104 19.4924 17.5374 19.3807 17.8263C19.2324 18.2076 19.0552 18.4811 18.7682 18.768C18.4812 19.055 18.2097 19.2322 17.8264 19.3805C17.5375 19.4922 17.1042 19.6251 16.3069 19.6617C15.4441 19.7002 15.186 19.7098 13.0001 19.7098C10.8141 19.7098 10.5561 19.7021 9.69325 19.6617C8.89592 19.6251 8.46258 19.4922 8.17369 19.3805C7.79236 19.2322 7.51888 19.055 7.23192 18.768C6.94495 18.4811 6.76777 18.2095 6.61947 17.8263C6.50777 17.5374 6.37488 17.104 6.33829 16.3067C6.29977 15.4439 6.29014 15.1839 6.29014 12.9999C6.29014 10.8159 6.29784 10.5559 6.33829 9.69307C6.37488 8.89573 6.50777 8.4624 6.61947 8.17351C6.76777 7.79218 6.94495 7.5187 7.23192 7.23173C7.51888 6.94477 7.79044 6.76759 8.17369 6.61929C8.46258 6.50759 8.89592 6.3747 9.69325 6.3381C10.5561 6.29766 10.8141 6.28996 13.0001 6.28996ZM13.0001 4.8147C10.7775 4.8147 10.4983 4.82433 9.62584 4.86477C8.75532 4.90522 8.16021 5.04196 7.63829 5.2461C7.10095 5.45603 6.64451 5.73529 6.18807 6.18981C5.73355 6.64433 5.45236 7.10077 5.24436 7.64003C5.04214 8.16003 4.90347 8.75514 4.86303 9.62759C4.82451 10.4981 4.81488 10.7774 4.81488 12.9999C4.81488 15.2224 4.82451 15.5017 4.86495 16.3741C4.9054 17.2446 5.04214 17.8397 5.24629 18.3617C5.45621 18.899 5.73547 19.3554 6.18999 19.8119C6.64451 20.2664 7.10095 20.5476 7.64021 20.7556C8.16021 20.9578 8.75533 21.0965 9.62777 21.1369C10.5002 21.1774 10.7795 21.187 13.002 21.187C15.2245 21.187 15.5038 21.1774 16.3762 21.1369C17.2467 21.0965 17.8418 20.9597 18.3638 20.7556C18.9011 20.5457 19.3575 20.2664 19.814 19.8119C20.2685 19.3574 20.5497 18.9009 20.7577 18.3617C20.9599 17.8417 21.0986 17.2465 21.139 16.3741C21.1795 15.5017 21.1891 15.2224 21.1891 12.9999C21.1891 10.7774 21.1795 10.4981 21.139 9.62566C21.0986 8.75514 20.9618 8.16003 20.7577 7.6381C20.5478 7.10077 20.2685 6.64433 19.814 6.18788C19.3595 5.73336 18.903 5.45218 18.3638 5.24418C17.8438 5.04196 17.2487 4.90329 16.3762 4.86285C15.5018 4.82433 15.2226 4.8147 13.0001 4.8147Z" fill="black"/>
<path d="M13 8.79761C10.6793 8.79761 8.79767 10.6792 8.79767 13C8.79767 15.3207 10.6793 17.2023 13 17.2023C15.3208 17.2023 17.2024 15.3207 17.2024 13C17.2024 10.6792 15.3208 8.79761 13 8.79761ZM13 15.729C11.494 15.729 10.271 14.508 10.271 13C10.271 11.492 11.492 10.2709 13 10.2709C14.508 10.2709 15.7291 11.492 15.7291 13C15.7291 14.508 14.5061 15.729 13 15.729Z" fill="black"/>
<path d="M17.3699 9.61215C17.9124 9.61215 18.3521 9.17239 18.3521 8.62993C18.3521 8.08746 17.9124 7.64771 17.3699 7.64771C16.8275 7.64771 16.3877 8.08746 16.3877 8.62993C16.3877 9.17239 16.8275 9.61215 17.3699 9.61215Z" fill="black"/>
</g>
</svg>
