<svg width="145" height="16" viewBox="0 0 145 16" fill="none" xmlns="http://www.w3.org/2000/svg">
<path d="M15.8392 0.705566V15.2946H12.3603V6.8905L8.55397 12.911H7.2852L3.47889 6.8905V15.2946H0V0.705566H3.47889L7.91958 7.54803L12.3603 0.705566H15.8392Z" fill="white"/>
<path d="M17.9797 8C17.9797 3.82877 21.2949 0.5 25.4491 0.5C29.6033 0.5 32.9185 3.82877 32.9185 8C32.9185 12.1712 29.6033 15.5 25.4491 15.5C21.2949 15.5 17.9797 12.1712 17.9797 8ZM29.4396 8C29.4396 5.69863 27.8434 3.78767 25.4491 3.78767C23.0548 3.78767 21.4586 5.69863 21.4586 8C21.4586 10.3014 23.0548 12.2123 25.4491 12.2123C27.8434 12.2123 29.4396 10.3014 29.4396 8Z" fill="white"/>
<path d="M43.7535 3.99324H40.4792V15.2946H37.0003V3.99324H33.7261V0.705566H43.7535V3.99324Z" fill="white"/>
<path d="M46.0046 0.705566H49.4835V15.2946H46.0046V0.705566Z" fill="white"/>
<path d="M52.0415 8C52.0415 3.82877 55.3567 0.5 59.5109 0.5C63.6651 0.5 66.9803 3.82877 66.9803 8C66.9803 12.1712 63.6651 15.5 59.5109 15.5C55.3567 15.5 52.0415 12.1712 52.0415 8ZM63.5014 8C63.5014 5.69863 61.9052 3.78767 59.5109 3.78767C57.1166 3.78767 55.5204 5.69863 55.5204 8C55.5204 10.3014 57.1166 12.2123 59.5109 12.2123C61.9052 12.2123 63.5014 10.3014 63.5014 8Z" fill="white"/>
<path d="M82.3691 0.705566V15.2946H78.8903L72.6078 6.52063V15.2946H69.1289V0.705566H72.6078L78.8903 9.47954V0.705566H82.3691Z" fill="white"/>
<path d="M94.8112 12.0069V15.2946H85.3977V0.705566H88.8766V12.0069H94.8112Z" fill="white"/>
<path d="M97.2668 0.705566H100.746V15.2946H97.2668V0.705566Z" fill="white"/>
<path d="M117.333 6.82877C117.333 12.5616 114.243 15.5 109.904 15.5C105.77 15.5 102.68 12.089 102.68 8C102.682 3.91096 105.772 0.5 110.315 0.5C112.73 0.5 114.633 1.65068 115.983 3.41781L113.363 5.43151C112.79 4.60959 111.787 3.78767 110.314 3.78767C107.817 3.78767 106.159 5.59589 106.159 8C106.159 10.4041 107.612 12.2123 109.904 12.2123C111.623 12.2123 112.851 11.4521 113.445 10.1164H108.983V6.82877H117.333Z" fill="white"/>
<path d="M132.803 0.705566V15.2946H129.325V9.8083H123.595V15.2946H120.116V0.705566H123.595V6.52063H129.325V0.705566H132.803Z" fill="white"/>
<path d="M145 3.99324H141.726V15.2946H138.247V3.99324H134.973V0.705566H145V3.99324Z" fill="white"/>
</svg>
