<svg width="17" height="17" viewBox="0 0 17 17" fill="none" xmlns="http://www.w3.org/2000/svg">
<g clip-path="url(#clip0_1_264)">
<path d="M8.50041 17C6.22982 17 4.09573 16.1156 2.48964 14.5104C0.883552 12.9051 0 10.7702 0 8.50041C0 6.22982 0.884369 4.09491 2.48964 2.48964C4.09491 0.884369 6.22982 0 8.50041 0C10.771 0 12.9051 0.884369 14.5112 2.48964C16.1164 4.09491 17.0008 6.22982 17.0008 8.50041C17.0008 10.771 16.1164 12.9051 14.5112 14.5112C12.9051 16.1164 10.7702 17 8.50041 17ZM8.50041 1.01514C6.50118 1.01514 4.62128 1.79326 3.20809 3.20727C1.79408 4.62128 1.01596 6.50118 1.01596 8.50041C1.01596 10.4996 1.79408 12.3795 3.20809 13.7927C4.6221 15.2059 6.50118 15.9849 8.50041 15.9849C10.4996 15.9849 12.3795 15.2059 13.7927 13.7927C15.2067 12.3787 15.9849 10.4988 15.9849 8.50041C15.9849 6.50118 15.2067 4.62128 13.7927 3.20727C12.3787 1.79326 10.4988 1.01514 8.50041 1.01514Z" fill="white"/>
<path d="M8.49962 8.16125C7.13547 8.16125 6.02551 6.94749 6.02551 5.45501C6.02551 3.96254 7.13547 2.74878 8.49962 2.74878C9.86377 2.74878 10.9729 3.96254 10.9729 5.45501C10.9729 6.94667 9.86377 8.16125 8.49962 8.16125ZM8.49962 3.76392C7.69535 3.76392 7.04066 4.52242 7.04066 5.45501C7.04066 6.38761 7.69453 7.1461 8.49962 7.1461C9.30389 7.1461 9.95777 6.38761 9.95777 5.45501C9.95777 4.52242 9.30389 3.76392 8.49962 3.76392Z" fill="white"/>
<path d="M12.1703 13.3309H4.82889C4.13823 13.3309 3.5759 12.7694 3.5759 12.0788C3.5759 10.8184 3.85053 9.08238 6.22328 8.41869C6.49382 8.3435 6.77336 8.50043 6.84855 8.77097C6.92375 9.04069 6.76682 9.32104 6.49628 9.39624C4.91471 9.83924 4.59022 10.7841 4.59022 12.0665C4.59022 12.2104 4.69648 12.3166 4.82807 12.3166H12.1695C12.3003 12.3166 12.4073 12.2104 12.4073 12.0788C12.4073 10.7841 12.0828 9.83924 10.5013 9.39624C10.2315 9.32104 10.0738 9.04069 10.149 8.77097C10.2242 8.50125 10.5029 8.34268 10.7743 8.41869C13.147 9.08238 13.4217 10.8184 13.4217 12.0665C13.4225 12.7686 12.861 13.3309 12.1703 13.3309Z" fill="white"/>
</g>
<defs>
<clipPath id="clip0_1_264">
<rect width="17" height="17" fill="white"/>
</clipPath>
</defs>
</svg>
