<svg width="26" height="26" viewBox="0 0 26 26" fill="none" xmlns="http://www.w3.org/2000/svg">
<g opacity="0.5">
<path d="M13 26C20.1797 26 26 20.1797 26 13C26 5.8203 20.1797 0 13 0C5.8203 0 0 5.8203 0 13C0 20.1797 5.8203 26 13 26Z" fill="white"/>
<path d="M21.399 8.92863C21.32 10.635 20.1298 12.9692 17.8245 15.9352C15.4421 19.032 13.4257 20.5805 11.7771 20.5805C10.7544 20.5805 9.89158 19.6387 9.18476 17.7513C8.71291 16.0218 8.24299 14.2943 7.77114 12.5648C7.24728 10.6793 6.68491 9.7356 6.0821 9.7356C5.95114 9.7356 5.49276 10.011 4.70699 10.5618L3.88269 9.50064C4.74743 8.73989 5.60062 7.98108 6.44032 7.22034C7.59395 6.22463 8.46062 5.69886 9.03839 5.64686C10.402 5.51589 11.2417 6.44804 11.5556 8.4433C11.8965 10.5965 12.1314 11.935 12.2643 12.4589C12.6572 14.2461 13.0905 15.1378 13.5624 15.1378C13.9283 15.1378 14.4811 14.5581 15.2148 13.3987C15.9486 12.2412 16.3415 11.3592 16.3954 10.7525C16.4994 9.75293 16.1065 9.25219 15.2148 9.25219C14.795 9.25219 14.3617 9.34849 13.9168 9.53915C14.7777 6.71767 16.4243 5.34834 18.8529 5.4273C20.6537 5.47738 21.503 6.64449 21.399 8.92863Z" fill="black"/>
</g>
</svg>
