<svg width="26" height="26" viewBox="0 0 26 26" fill="none" xmlns="http://www.w3.org/2000/svg">
<g opacity="0.5">
<path d="M13 26C20.1797 26 26 20.1797 26 13C26 5.8203 20.1797 0 13 0C5.8203 0 0 5.8203 0 13C0 20.1797 5.8203 26 13 26Z" fill="white"/>
<path d="M21.3046 8.82846C21.1043 8.08313 20.5188 7.49572 19.7715 7.29542C18.4195 6.93335 13 6.93335 13 6.93335C13 6.93335 7.58042 6.93335 6.22842 7.29542C5.48309 7.49572 4.89568 8.0812 4.69539 8.82846C4.33331 10.1805 4.33331 13 4.33331 13C4.33331 13 4.33331 15.8196 4.69539 17.1716C4.89376 17.9169 5.48116 18.5043 6.22842 18.7046C7.58042 19.0667 13 19.0667 13 19.0667C13 19.0667 18.4195 19.0667 19.7715 18.7046C20.5169 18.5043 21.1043 17.9188 21.3046 17.1716C21.6666 15.8196 21.6666 13 21.6666 13C21.6666 13 21.6666 10.1805 21.3046 8.82846ZM11.2666 15.6V10.4L15.7695 13L11.2666 15.6Z" fill="black"/>
</g>
</svg>
